#N canvas 47 74 1152 539 12;
#N canvas 131 166 977 504 step_seq_sounds_chooser_and_player 0;
#X obj 338 89 openpanel;
#X obj 338 149 soundfiler;
#X msg 338 118 read -resize \$1 track_1_sound;
#X obj 180 150 bng 19 250 50 0 empty empty Choose\ track\ 1\ sound -50 -10 0 12 #fcfcfc #000000 #000000;
#X obj 424 151 table track_1_sound;
#X obj 387 251 tabplay~ track_1_sound;
#X obj 427 289 dac~;
#X obj 353 219 r b_play_track_1;
#X obj 480 189 t b b;
#X msg 511 220 stop;
#X obj 610 88 openpanel;
#X obj 610 148 soundfiler;
#X obj 180 199 bng 19 250 50 0 empty empty Choose\ track\ 2\ sound -50 -10 0 12 #fcfcfc #000000 #000000;
#X obj 699 288 dac~;
#X obj 752 188 t b b;
#X msg 783 219 stop;
#X msg 610 117 read -resize \$1 track_2_sound;
#X obj 696 150 table track_2_sound;
#X obj 625 218 r b_play_track_2;
#X obj 659 250 tabplay~ track_2_sound;
#X connect 0 0 2 0;
#X connect 2 0 1 0;
#X connect 3 0 0 0;
#X connect 5 0 6 0;
#X connect 5 0 6 1;
#X connect 7 0 8 0;
#X connect 8 0 5 0;
#X connect 8 1 9 0;
#X connect 9 0 5 0;
#X connect 10 0 16 0;
#X connect 12 0 10 0;
#X connect 14 0 19 0;
#X connect 14 1 15 0;
#X connect 15 0 19 0;
#X connect 16 0 11 0;
#X connect 18 0 14 0;
#X connect 19 0 13 0;
#X connect 19 0 13 1;
#X coords 0 -1 1 1 200 140 1 100 100;
#X restore 107 504 pd step_seq_sounds_chooser_and_player;
#N canvas 3 23 1248 681 step_seq_toggles_matrix 0;
#X obj -2448 349 tgl 19 0 empty empty empty 0 -10 0 12 #fcfcfc #000000 #000000 0 1;
#X obj -2487 349 bng 19 250 50 0 empty empty empty 0 -10 0 12 #fcfcfc #000000 #000000;
#X obj -2487 378 spigot;
#X obj -2487 408 bng 19 250 50 0 empty empty empty 0 -10 0 12 #fcfcfc #000000 #000000;
#X obj -2542 322 r b_step_1;
#X obj -2252 347 tgl 19 0 empty empty empty 0 -10 0 12 #fcfcfc #000000 #000000 0 1;
#X obj -2291 347 bng 19 250 50 0 empty empty empty 0 -10 0 12 #fcfcfc #000000 #000000;
#X obj -2291 376 spigot;
#X obj -2291 406 bng 19 250 50 0 empty empty empty 0 -10 0 12 #fcfcfc #000000 #000000;
#X obj -2069 343 tgl 19 0 empty empty empty 0 -10 0 12 #fcfcfc #000000 #000000 0 1;
#X obj -2108 343 bng 19 250 50 0 empty empty empty 0 -10 0 12 #fcfcfc #000000 #000000;
#X obj -2108 372 spigot;
#X obj -2108 402 bng 19 250 50 0 empty empty empty 0 -10 0 12 #fcfcfc #000000 #000000;
#X obj -1877 337 tgl 19 0 empty empty empty 0 -10 0 12 #fcfcfc #000000 #000000 0 1;
#X obj -1916 337 bng 19 250 50 0 empty empty empty 0 -10 0 12 #fcfcfc #000000 #000000;
#X obj -1916 366 spigot;
#X obj -1916 396 bng 19 250 50 0 empty empty empty 0 -10 0 12 #fcfcfc #000000 #000000;
#X obj -1673 340 tgl 19 0 empty empty empty 0 -10 0 12 #fcfcfc #000000 #000000 0 1;
#X obj -1712 340 bng 19 250 50 0 empty empty empty 0 -10 0 12 #fcfcfc #000000 #000000;
#X obj -1712 369 spigot;
#X obj -1712 399 bng 19 250 50 0 empty empty empty 0 -10 0 12 #fcfcfc #000000 #000000;
#X obj -1477 338 tgl 19 0 empty empty empty 0 -10 0 12 #fcfcfc #000000 #000000 0 1;
#X obj -1516 338 bng 19 250 50 0 empty empty empty 0 -10 0 12 #fcfcfc #000000 #000000;
#X obj -1516 367 spigot;
#X obj -1516 397 bng 19 250 50 0 empty empty empty 0 -10 0 12 #fcfcfc #000000 #000000;
#X obj -1294 334 tgl 19 0 empty empty empty 0 -10 0 12 #fcfcfc #000000 #000000 0 1;
#X obj -1333 334 bng 19 250 50 0 empty empty empty 0 -10 0 12 #fcfcfc #000000 #000000;
#X obj -1333 363 spigot;
#X obj -1333 393 bng 19 250 50 0 empty empty empty 0 -10 0 12 #fcfcfc #000000 #000000;
#X obj -1102 328 tgl 19 0 empty empty empty 0 -10 0 12 #fcfcfc #000000 #000000 0 1;
#X obj -1141 328 bng 19 250 50 0 empty empty empty 0 -10 0 12 #fcfcfc #000000 #000000;
#X obj -1141 357 spigot;
#X obj -1141 387 bng 19 250 50 0 empty empty empty 0 -10 0 12 #fcfcfc #000000 #000000;
#X obj -2346 320 r b_step_2;
#X obj -2163 316 r b_step_3;
#X obj -1971 310 r b_step_4;
#X obj -1767 313 r b_step_5;
#X obj -1571 311 r b_step_6;
#X obj -1388 307 r b_step_7;
#X obj -1196 301 r b_step_8;
#X obj -893 322 tgl 19 0 empty empty empty 0 -10 0 12 #fcfcfc #000000 #000000 0 1;
#X obj -932 322 bng 19 250 50 0 empty empty empty 0 -10 0 12 #fcfcfc #000000 #000000;
#X obj -932 351 spigot;
#X obj -932 381 bng 19 250 50 0 empty empty empty 0 -10 0 12 #fcfcfc #000000 #000000;
#X obj -693 338 tgl 19 0 empty empty empty 0 -10 0 12 #fcfcfc #000000 #000000 0 1;
#X obj -732 338 bng 19 250 50 0 empty empty empty 0 -10 0 12 #fcfcfc #000000 #000000;
#X obj -732 367 spigot;
#X obj -732 397 bng 19 250 50 0 empty empty empty 0 -10 0 12 #fcfcfc #000000 #000000;
#X obj -510 334 tgl 19 0 empty empty empty 0 -10 0 12 #fcfcfc #000000 #000000 0 1;
#X obj -549 334 bng 19 250 50 0 empty empty empty 0 -10 0 12 #fcfcfc #000000 #000000;
#X obj -549 363 spigot;
#X obj -549 393 bng 19 250 50 0 empty empty empty 0 -10 0 12 #fcfcfc #000000 #000000;
#X obj -318 328 tgl 19 0 empty empty empty 0 -10 0 12 #fcfcfc #000000 #000000 0 1;
#X obj -357 328 bng 19 250 50 0 empty empty empty 0 -10 0 12 #fcfcfc #000000 #000000;
#X obj -357 357 spigot;
#X obj -357 387 bng 19 250 50 0 empty empty empty 0 -10 0 12 #fcfcfc #000000 #000000;
#X obj -987 295 r b_step_9;
#X obj -787 311 r b_step_10;
#X obj -604 307 r b_step_11;
#X obj -412 301 r b_step_12;
#X obj -116 328 tgl 19 0 empty empty empty 0 -10 0 12 #fcfcfc #000000 #000000 0 1;
#X obj -155 328 bng 19 250 50 0 empty empty empty 0 -10 0 12 #fcfcfc #000000 #000000;
#X obj -155 357 spigot;
#X obj -155 387 bng 19 250 50 0 empty empty empty 0 -10 0 12 #fcfcfc #000000 #000000;
#X obj 81 332 tgl 19 0 empty empty empty 0 -10 0 12 #fcfcfc #000000 #000000 0 1;
#X obj 42 332 bng 19 250 50 0 empty empty empty 0 -10 0 12 #fcfcfc #000000 #000000;
#X obj 42 361 spigot;
#X obj 42 391 bng 19 250 50 0 empty empty empty 0 -10 0 12 #fcfcfc #000000 #000000;
#X obj 264 328 tgl 19 0 empty empty empty 0 -10 0 12 #fcfcfc #000000 #000000 0 1;
#X obj 225 328 bng 19 250 50 0 empty empty empty 0 -10 0 12 #fcfcfc #000000 #000000;
#X obj 225 357 spigot;
#X obj 225 387 bng 19 250 50 0 empty empty empty 0 -10 0 12 #fcfcfc #000000 #000000;
#X obj 456 322 tgl 19 0 empty empty empty 0 -10 0 12 #fcfcfc #000000 #000000 0 1;
#X obj 417 322 bng 19 250 50 0 empty empty empty 0 -10 0 12 #fcfcfc #000000 #000000;
#X obj 417 351 spigot;
#X obj 417 381 bng 19 250 50 0 empty empty empty 0 -10 0 12 #fcfcfc #000000 #000000;
#X obj -210 301 r b_step_13;
#X obj -13 305 r b_step_14;
#X obj 170 301 r b_step_15;
#X obj 362 295 r b_step_16;
#X obj 659 324 tgl 19 0 empty empty empty 0 -10 0 12 #fcfcfc #000000 #000000 0 1;
#X obj 620 324 bng 19 250 50 0 empty empty empty 0 -10 0 12 #fcfcfc #000000 #000000;
#X obj 620 353 spigot;
#X obj 620 383 bng 19 250 50 0 empty empty empty 0 -10 0 12 #fcfcfc #000000 #000000;
#X obj 853 338 tgl 19 0 empty empty empty 0 -10 0 12 #fcfcfc #000000 #000000 0 1;
#X obj 814 338 bng 19 250 50 0 empty empty empty 0 -10 0 12 #fcfcfc #000000 #000000;
#X obj 814 367 spigot;
#X obj 814 397 bng 19 250 50 0 empty empty empty 0 -10 0 12 #fcfcfc #000000 #000000;
#X obj 1036 334 tgl 19 0 empty empty empty 0 -10 0 12 #fcfcfc #000000 #000000 0 1;
#X obj 997 334 bng 19 250 50 0 empty empty empty 0 -10 0 12 #fcfcfc #000000 #000000;
#X obj 997 363 spigot;
#X obj 997 393 bng 19 250 50 0 empty empty empty 0 -10 0 12 #fcfcfc #000000 #000000;
#X obj 1228 328 tgl 19 0 empty empty empty 0 -10 0 12 #fcfcfc #000000 #000000 0 1;
#X obj 1189 328 bng 19 250 50 0 empty empty empty 0 -10 0 12 #fcfcfc #000000 #000000;
#X obj 1189 357 spigot;
#X obj 1189 387 bng 19 250 50 0 empty empty empty 0 -10 0 12 #fcfcfc #000000 #000000;
#X obj 565 297 r b_step_17;
#X obj 759 311 r b_step_18;
#X obj 942 307 r b_step_19;
#X obj 1134 301 r b_step_20;
#X obj 1424 330 tgl 19 0 empty empty empty 0 -10 0 12 #fcfcfc #000000 #000000 0 1;
#X obj 1385 330 bng 19 250 50 0 empty empty empty 0 -10 0 12 #fcfcfc #000000 #000000;
#X obj 1385 359 spigot;
#X obj 1385 389 bng 19 250 50 0 empty empty empty 0 -10 0 12 #fcfcfc #000000 #000000;
#X obj 1618 333 tgl 19 0 empty empty empty 0 -10 0 12 #fcfcfc #000000 #000000 0 1;
#X obj 1579 333 bng 19 250 50 0 empty empty empty 0 -10 0 12 #fcfcfc #000000 #000000;
#X obj 1579 362 spigot;
#X obj 1579 392 bng 19 250 50 0 empty empty empty 0 -10 0 12 #fcfcfc #000000 #000000;
#X obj 1801 329 tgl 19 0 empty empty empty 0 -10 0 12 #fcfcfc #000000 #000000 0 1;
#X obj 1762 329 bng 19 250 50 0 empty empty empty 0 -10 0 12 #fcfcfc #000000 #000000;
#X obj 1762 358 spigot;
#X obj 1762 388 bng 19 250 50 0 empty empty empty 0 -10 0 12 #fcfcfc #000000 #000000;
#X obj 1993 323 tgl 19 0 empty empty empty 0 -10 0 12 #fcfcfc #000000 #000000 0 1;
#X obj 1954 323 bng 19 250 50 0 empty empty empty 0 -10 0 12 #fcfcfc #000000 #000000;
#X obj 1954 352 spigot;
#X obj 1954 382 bng 19 250 50 0 empty empty empty 0 -10 0 12 #fcfcfc #000000 #000000;
#X obj 1330 303 r b_step_21;
#X obj 1524 306 r b_step_22;
#X obj 1707 302 r b_step_23;
#X obj 1899 296 r b_step_24;
#X obj 2187 325 tgl 19 0 empty empty empty 0 -10 0 12 #fcfcfc #000000 #000000 0 1;
#X obj 2148 325 bng 19 250 50 0 empty empty empty 0 -10 0 12 #fcfcfc #000000 #000000;
#X obj 2148 354 spigot;
#X obj 2148 384 bng 19 250 50 0 empty empty empty 0 -10 0 12 #fcfcfc #000000 #000000;
#X obj 2384 327 tgl 19 0 empty empty empty 0 -10 0 12 #fcfcfc #000000 #000000 0 1;
#X obj 2345 327 bng 19 250 50 0 empty empty empty 0 -10 0 12 #fcfcfc #000000 #000000;
#X obj 2345 356 spigot;
#X obj 2345 386 bng 19 250 50 0 empty empty empty 0 -10 0 12 #fcfcfc #000000 #000000;
#X obj 2567 323 tgl 19 0 empty empty empty 0 -10 0 12 #fcfcfc #000000 #000000 0 1;
#X obj 2528 323 bng 19 250 50 0 empty empty empty 0 -10 0 12 #fcfcfc #000000 #000000;
#X obj 2528 352 spigot;
#X obj 2528 382 bng 19 250 50 0 empty empty empty 0 -10 0 12 #fcfcfc #000000 #000000;
#X obj 2759 317 tgl 19 0 empty empty empty 0 -10 0 12 #fcfcfc #000000 #000000 0 1;
#X obj 2720 317 bng 19 250 50 0 empty empty empty 0 -10 0 12 #fcfcfc #000000 #000000;
#X obj 2720 346 spigot;
#X obj 2720 376 bng 19 250 50 0 empty empty empty 0 -10 0 12 #fcfcfc #000000 #000000;
#X obj 2093 298 r b_step_25;
#X obj 2290 300 r b_step_26;
#X obj 2473 296 r b_step_27;
#X obj 2665 290 r b_step_28;
#X obj 2966 322 tgl 19 0 empty empty empty 0 -10 0 12 #fcfcfc #000000 #000000 0 1;
#X obj 2927 322 bng 19 250 50 0 empty empty empty 0 -10 0 12 #fcfcfc #000000 #000000;
#X obj 2927 351 spigot;
#X obj 2927 381 bng 19 250 50 0 empty empty empty 0 -10 0 12 #fcfcfc #000000 #000000;
#X obj 3162 320 tgl 19 0 empty empty empty 0 -10 0 12 #fcfcfc #000000 #000000 0 1;
#X obj 3123 320 bng 19 250 50 0 empty empty empty 0 -10 0 12 #fcfcfc #000000 #000000;
#X obj 3123 349 spigot;
#X obj 3123 379 bng 19 250 50 0 empty empty empty 0 -10 0 12 #fcfcfc #000000 #000000;
#X obj 3345 316 tgl 19 0 empty empty empty 0 -10 0 12 #fcfcfc #000000 #000000 0 1;
#X obj 3306 316 bng 19 250 50 0 empty empty empty 0 -10 0 12 #fcfcfc #000000 #000000;
#X obj 3306 345 spigot;
#X obj 3306 375 bng 19 250 50 0 empty empty empty 0 -10 0 12 #fcfcfc #000000 #000000;
#X obj 3537 310 tgl 19 0 empty empty empty 0 -10 0 12 #fcfcfc #000000 #000000 0 1;
#X obj 3498 310 bng 19 250 50 0 empty empty empty 0 -10 0 12 #fcfcfc #000000 #000000;
#X obj 3498 339 spigot;
#X obj 3498 369 bng 19 250 50 0 empty empty empty 0 -10 0 12 #fcfcfc #000000 #000000;
#X obj 2872 294 r b_step_29;
#X obj 3068 293 r b_step_30;
#X obj 3251 289 r b_step_31;
#X obj 3438 285 r b_step_32;
#X obj 376 437 s b_play_track_1;
#X obj -2444 544 tgl 19 0 empty empty empty 0 -10 0 12 #fcfcfc #000000 #000000 0 1;
#X obj -2483 544 bng 19 250 50 0 empty empty empty 0 -10 0 12 #fcfcfc #000000 #000000;
#X obj -2483 573 spigot;
#X obj -2483 603 bng 19 250 50 0 empty empty empty 0 -10 0 12 #fcfcfc #000000 #000000;
#X obj -2538 517 r b_step_1;
#X obj -2248 542 tgl 19 0 empty empty empty 0 -10 0 12 #fcfcfc #000000 #000000 0 1;
#X obj -2287 542 bng 19 250 50 0 empty empty empty 0 -10 0 12 #fcfcfc #000000 #000000;
#X obj -2287 571 spigot;
#X obj -2287 601 bng 19 250 50 0 empty empty empty 0 -10 0 12 #fcfcfc #000000 #000000;
#X obj -2065 538 tgl 19 0 empty empty empty 0 -10 0 12 #fcfcfc #000000 #000000 0 1;
#X obj -2104 538 bng 19 250 50 0 empty empty empty 0 -10 0 12 #fcfcfc #000000 #000000;
#X obj -2104 567 spigot;
#X obj -2104 597 bng 19 250 50 0 empty empty empty 0 -10 0 12 #fcfcfc #000000 #000000;
#X obj -1873 532 tgl 19 0 empty empty empty 0 -10 0 12 #fcfcfc #000000 #000000 0 1;
#X obj -1912 532 bng 19 250 50 0 empty empty empty 0 -10 0 12 #fcfcfc #000000 #000000;
#X obj -1912 561 spigot;
#X obj -1912 591 bng 19 250 50 0 empty empty empty 0 -10 0 12 #fcfcfc #000000 #000000;
#X obj -1669 535 tgl 19 0 empty empty empty 0 -10 0 12 #fcfcfc #000000 #000000 0 1;
#X obj -1708 535 bng 19 250 50 0 empty empty empty 0 -10 0 12 #fcfcfc #000000 #000000;
#X obj -1708 564 spigot;
#X obj -1708 594 bng 19 250 50 0 empty empty empty 0 -10 0 12 #fcfcfc #000000 #000000;
#X obj -1473 533 tgl 19 0 empty empty empty 0 -10 0 12 #fcfcfc #000000 #000000 0 1;
#X obj -1512 533 bng 19 250 50 0 empty empty empty 0 -10 0 12 #fcfcfc #000000 #000000;
#X obj -1512 562 spigot;
#X obj -1512 592 bng 19 250 50 0 empty empty empty 0 -10 0 12 #fcfcfc #000000 #000000;
#X obj -1290 529 tgl 19 0 empty empty empty 0 -10 0 12 #fcfcfc #000000 #000000 0 1;
#X obj -1329 529 bng 19 250 50 0 empty empty empty 0 -10 0 12 #fcfcfc #000000 #000000;
#X obj -1329 558 spigot;
#X obj -1329 588 bng 19 250 50 0 empty empty empty 0 -10 0 12 #fcfcfc #000000 #000000;
#X obj -1098 523 tgl 19 0 empty empty empty 0 -10 0 12 #fcfcfc #000000 #000000 0 1;
#X obj -1137 523 bng 19 250 50 0 empty empty empty 0 -10 0 12 #fcfcfc #000000 #000000;
#X obj -1137 552 spigot;
#X obj -1137 582 bng 19 250 50 0 empty empty empty 0 -10 0 12 #fcfcfc #000000 #000000;
#X obj -2342 515 r b_step_2;
#X obj -2159 511 r b_step_3;
#X obj -1967 505 r b_step_4;
#X obj -1763 508 r b_step_5;
#X obj -1567 506 r b_step_6;
#X obj -1384 502 r b_step_7;
#X obj -1192 496 r b_step_8;
#X obj -889 517 tgl 19 0 empty empty empty 0 -10 0 12 #fcfcfc #000000 #000000 0 1;
#X obj -928 517 bng 19 250 50 0 empty empty empty 0 -10 0 12 #fcfcfc #000000 #000000;
#X obj -928 546 spigot;
#X obj -928 576 bng 19 250 50 0 empty empty empty 0 -10 0 12 #fcfcfc #000000 #000000;
#X obj -689 533 tgl 19 0 empty empty empty 0 -10 0 12 #fcfcfc #000000 #000000 0 1;
#X obj -728 533 bng 19 250 50 0 empty empty empty 0 -10 0 12 #fcfcfc #000000 #000000;
#X obj -728 562 spigot;
#X obj -728 592 bng 19 250 50 0 empty empty empty 0 -10 0 12 #fcfcfc #000000 #000000;
#X obj -506 529 tgl 19 0 empty empty empty 0 -10 0 12 #fcfcfc #000000 #000000 0 1;
#X obj -545 529 bng 19 250 50 0 empty empty empty 0 -10 0 12 #fcfcfc #000000 #000000;
#X obj -545 558 spigot;
#X obj -545 588 bng 19 250 50 0 empty empty empty 0 -10 0 12 #fcfcfc #000000 #000000;
#X obj -314 523 tgl 19 0 empty empty empty 0 -10 0 12 #fcfcfc #000000 #000000 0 1;
#X obj -353 523 bng 19 250 50 0 empty empty empty 0 -10 0 12 #fcfcfc #000000 #000000;
#X obj -353 552 spigot;
#X obj -353 582 bng 19 250 50 0 empty empty empty 0 -10 0 12 #fcfcfc #000000 #000000;
#X obj -983 490 r b_step_9;
#X obj -783 506 r b_step_10;
#X obj -600 502 r b_step_11;
#X obj -408 496 r b_step_12;
#X obj -112 523 tgl 19 0 empty empty empty 0 -10 0 12 #fcfcfc #000000 #000000 0 1;
#X obj -151 523 bng 19 250 50 0 empty empty empty 0 -10 0 12 #fcfcfc #000000 #000000;
#X obj -151 552 spigot;
#X obj -151 582 bng 19 250 50 0 empty empty empty 0 -10 0 12 #fcfcfc #000000 #000000;
#X obj 85 527 tgl 19 0 empty empty empty 0 -10 0 12 #fcfcfc #000000 #000000 0 1;
#X obj 46 527 bng 19 250 50 0 empty empty empty 0 -10 0 12 #fcfcfc #000000 #000000;
#X obj 46 556 spigot;
#X obj 46 586 bng 19 250 50 0 empty empty empty 0 -10 0 12 #fcfcfc #000000 #000000;
#X obj 268 523 tgl 19 0 empty empty empty 0 -10 0 12 #fcfcfc #000000 #000000 0 1;
#X obj 229 523 bng 19 250 50 0 empty empty empty 0 -10 0 12 #fcfcfc #000000 #000000;
#X obj 229 552 spigot;
#X obj 229 582 bng 19 250 50 0 empty empty empty 0 -10 0 12 #fcfcfc #000000 #000000;
#X obj 460 517 tgl 19 0 empty empty empty 0 -10 0 12 #fcfcfc #000000 #000000 0 1;
#X obj 421 517 bng 19 250 50 0 empty empty empty 0 -10 0 12 #fcfcfc #000000 #000000;
#X obj 421 546 spigot;
#X obj 421 576 bng 19 250 50 0 empty empty empty 0 -10 0 12 #fcfcfc #000000 #000000;
#X obj -206 496 r b_step_13;
#X obj -9 500 r b_step_14;
#X obj 174 496 r b_step_15;
#X obj 366 490 r b_step_16;
#X obj 663 519 tgl 19 0 empty empty empty 0 -10 0 12 #fcfcfc #000000 #000000 0 1;
#X obj 624 519 bng 19 250 50 0 empty empty empty 0 -10 0 12 #fcfcfc #000000 #000000;
#X obj 624 548 spigot;
#X obj 624 578 bng 19 250 50 0 empty empty empty 0 -10 0 12 #fcfcfc #000000 #000000;
#X obj 857 533 tgl 19 0 empty empty empty 0 -10 0 12 #fcfcfc #000000 #000000 0 1;
#X obj 818 533 bng 19 250 50 0 empty empty empty 0 -10 0 12 #fcfcfc #000000 #000000;
#X obj 818 562 spigot;
#X obj 818 592 bng 19 250 50 0 empty empty empty 0 -10 0 12 #fcfcfc #000000 #000000;
#X obj 1040 529 tgl 19 0 empty empty empty 0 -10 0 12 #fcfcfc #000000 #000000 0 1;
#X obj 1001 529 bng 19 250 50 0 empty empty empty 0 -10 0 12 #fcfcfc #000000 #000000;
#X obj 1001 558 spigot;
#X obj 1001 588 bng 19 250 50 0 empty empty empty 0 -10 0 12 #fcfcfc #000000 #000000;
#X obj 1232 523 tgl 19 0 empty empty empty 0 -10 0 12 #fcfcfc #000000 #000000 0 1;
#X obj 1193 523 bng 19 250 50 0 empty empty empty 0 -10 0 12 #fcfcfc #000000 #000000;
#X obj 1193 552 spigot;
#X obj 1193 582 bng 19 250 50 0 empty empty empty 0 -10 0 12 #fcfcfc #000000 #000000;
#X obj 569 492 r b_step_17;
#X obj 763 506 r b_step_18;
#X obj 946 502 r b_step_19;
#X obj 1138 496 r b_step_20;
#X obj 1428 525 tgl 19 0 empty empty empty 0 -10 0 12 #fcfcfc #000000 #000000 0 1;
#X obj 1389 525 bng 19 250 50 0 empty empty empty 0 -10 0 12 #fcfcfc #000000 #000000;
#X obj 1389 554 spigot;
#X obj 1389 584 bng 19 250 50 0 empty empty empty 0 -10 0 12 #fcfcfc #000000 #000000;
#X obj 1622 528 tgl 19 0 empty empty empty 0 -10 0 12 #fcfcfc #000000 #000000 0 1;
#X obj 1583 528 bng 19 250 50 0 empty empty empty 0 -10 0 12 #fcfcfc #000000 #000000;
#X obj 1583 557 spigot;
#X obj 1583 587 bng 19 250 50 0 empty empty empty 0 -10 0 12 #fcfcfc #000000 #000000;
#X obj 1805 524 tgl 19 0 empty empty empty 0 -10 0 12 #fcfcfc #000000 #000000 0 1;
#X obj 1766 524 bng 19 250 50 0 empty empty empty 0 -10 0 12 #fcfcfc #000000 #000000;
#X obj 1766 553 spigot;
#X obj 1766 583 bng 19 250 50 0 empty empty empty 0 -10 0 12 #fcfcfc #000000 #000000;
#X obj 1997 518 tgl 19 0 empty empty empty 0 -10 0 12 #fcfcfc #000000 #000000 0 1;
#X obj 1958 518 bng 19 250 50 0 empty empty empty 0 -10 0 12 #fcfcfc #000000 #000000;
#X obj 1958 547 spigot;
#X obj 1958 577 bng 19 250 50 0 empty empty empty 0 -10 0 12 #fcfcfc #000000 #000000;
#X obj 1334 498 r b_step_21;
#X obj 1528 501 r b_step_22;
#X obj 1711 497 r b_step_23;
#X obj 1903 491 r b_step_24;
#X obj 2191 520 tgl 19 0 empty empty empty 0 -10 0 12 #fcfcfc #000000 #000000 0 1;
#X obj 2152 520 bng 19 250 50 0 empty empty empty 0 -10 0 12 #fcfcfc #000000 #000000;
#X obj 2152 549 spigot;
#X obj 2152 579 bng 19 250 50 0 empty empty empty 0 -10 0 12 #fcfcfc #000000 #000000;
#X obj 2388 522 tgl 19 0 empty empty empty 0 -10 0 12 #fcfcfc #000000 #000000 0 1;
#X obj 2349 522 bng 19 250 50 0 empty empty empty 0 -10 0 12 #fcfcfc #000000 #000000;
#X obj 2349 551 spigot;
#X obj 2349 581 bng 19 250 50 0 empty empty empty 0 -10 0 12 #fcfcfc #000000 #000000;
#X obj 2571 518 tgl 19 0 empty empty empty 0 -10 0 12 #fcfcfc #000000 #000000 0 1;
#X obj 2532 518 bng 19 250 50 0 empty empty empty 0 -10 0 12 #fcfcfc #000000 #000000;
#X obj 2532 547 spigot;
#X obj 2532 577 bng 19 250 50 0 empty empty empty 0 -10 0 12 #fcfcfc #000000 #000000;
#X obj 2763 512 tgl 19 0 empty empty empty 0 -10 0 12 #fcfcfc #000000 #000000 0 1;
#X obj 2724 512 bng 19 250 50 0 empty empty empty 0 -10 0 12 #fcfcfc #000000 #000000;
#X obj 2724 541 spigot;
#X obj 2724 571 bng 19 250 50 0 empty empty empty 0 -10 0 12 #fcfcfc #000000 #000000;
#X obj 2097 493 r b_step_25;
#X obj 2294 495 r b_step_26;
#X obj 2477 491 r b_step_27;
#X obj 2669 485 r b_step_28;
#X obj 2970 517 tgl 19 0 empty empty empty 0 -10 0 12 #fcfcfc #000000 #000000 0 1;
#X obj 2931 517 bng 19 250 50 0 empty empty empty 0 -10 0 12 #fcfcfc #000000 #000000;
#X obj 2931 546 spigot;
#X obj 2931 576 bng 19 250 50 0 empty empty empty 0 -10 0 12 #fcfcfc #000000 #000000;
#X obj 3166 515 tgl 19 0 empty empty empty 0 -10 0 12 #fcfcfc #000000 #000000 0 1;
#X obj 3127 515 bng 19 250 50 0 empty empty empty 0 -10 0 12 #fcfcfc #000000 #000000;
#X obj 3127 544 spigot;
#X obj 3127 574 bng 19 250 50 0 empty empty empty 0 -10 0 12 #fcfcfc #000000 #000000;
#X obj 3349 511 tgl 19 0 empty empty empty 0 -10 0 12 #fcfcfc #000000 #000000 0 1;
#X obj 3310 511 bng 19 250 50 0 empty empty empty 0 -10 0 12 #fcfcfc #000000 #000000;
#X obj 3310 540 spigot;
#X obj 3310 570 bng 19 250 50 0 empty empty empty 0 -10 0 12 #fcfcfc #000000 #000000;
#X obj 3541 505 tgl 19 0 empty empty empty 0 -10 0 12 #fcfcfc #000000 #000000 0 1;
#X obj 3502 505 bng 19 250 50 0 empty empty empty 0 -10 0 12 #fcfcfc #000000 #000000;
#X obj 3502 534 spigot;
#X obj 3502 564 bng 19 250 50 0 empty empty empty 0 -10 0 12 #fcfcfc #000000 #000000;
#X obj 2876 489 r b_step_29;
#X obj 3072 488 r b_step_30;
#X obj 3255 484 r b_step_31;
#X obj 3447 478 r b_step_32;
#X obj 380 632 s b_play_track_2;
#X obj 109 144 tgl 14 0 empty empty empty 0 -10 0 12 #fcfcfc #000000 #000000 0 1;
#X obj 123 144 tgl 14 0 empty empty empty 0 -10 0 12 #fcfcfc #000000 #000000 0 1;
#X obj 138 144 tgl 14 0 empty empty empty 0 -10 0 12 #fcfcfc #000000 #000000 0 1;
#X obj 153 144 tgl 14 0 empty empty empty 0 -10 0 12 #fcfcfc #000000 #000000 0 1;
#X obj 168 144 tgl 14 0 empty empty empty 0 -10 0 12 #fcfcfc #000000 #000000 0 1;
#X obj 183 144 tgl 14 0 empty empty empty 0 -10 0 12 #fcfcfc #000000 #000000 0 1;
#X obj 198 144 tgl 14 0 empty empty empty 0 -10 0 12 #fcfcfc #000000 #000000 0 1;
#X obj 212 144 tgl 14 0 empty empty empty 0 -10 0 12 #fcfcfc #000000 #000000 0 1;
#X obj 227 144 tgl 14 0 empty empty empty 0 -10 0 12 #fcfcfc #000000 #000000 0 1;
#X obj 242 144 tgl 14 0 empty empty empty 0 -10 0 12 #fcfcfc #000000 #000000 0 1;
#X obj 257 144 tgl 14 0 empty empty empty 0 -10 0 12 #fcfcfc #000000 #000000 0 1;
#X obj 272 144 tgl 14 0 empty empty empty 0 -10 0 12 #fcfcfc #000000 #000000 0 1;
#X obj 287 144 tgl 14 0 empty empty empty 0 -10 0 12 #fcfcfc #000000 #000000 0 1;
#X obj 301 144 tgl 14 0 empty empty empty 0 -10 0 12 #fcfcfc #000000 #000000 0 1;
#X obj 316 144 tgl 14 0 empty empty empty 0 -10 0 12 #fcfcfc #000000 #000000 0 1;
#X obj 331 144 tgl 14 0 empty empty empty 0 -10 0 12 #fcfcfc #000000 #000000 0 1;
#X obj 346 144 tgl 14 0 empty empty empty 0 -10 0 12 #fcfcfc #000000 #000000 0 1;
#X obj 361 144 tgl 14 0 empty empty empty 0 -10 0 12 #fcfcfc #000000 #000000 0 1;
#X obj 376 144 tgl 14 0 empty empty empty 0 -10 0 12 #fcfcfc #000000 #000000 0 1;
#X obj 390 144 tgl 14 0 empty empty empty 0 -10 0 12 #fcfcfc #000000 #000000 0 1;
#X obj 405 144 tgl 14 0 empty empty empty 0 -10 0 12 #fcfcfc #000000 #000000 0 1;
#X obj 420 144 tgl 14 0 empty empty empty 0 -10 0 12 #fcfcfc #000000 #000000 0 1;
#X obj 435 144 tgl 14 0 empty empty empty 0 -10 0 12 #fcfcfc #000000 #000000 0 1;
#X obj 450 144 tgl 14 0 empty empty empty 0 -10 0 12 #fcfcfc #000000 #000000 0 1;
#X obj 465 144 tgl 14 0 empty empty empty 0 -10 0 12 #fcfcfc #000000 #000000 0 1;
#X obj 480 144 tgl 14 0 empty empty empty 0 -10 0 12 #fcfcfc #000000 #000000 0 1;
#X obj 495 144 tgl 14 0 empty empty empty 0 -10 0 12 #fcfcfc #000000 #000000 0 1;
#X obj 510 144 tgl 14 0 empty empty empty 0 -10 0 12 #fcfcfc #000000 #000000 0 1;
#X obj 525 144 tgl 14 0 empty empty empty 0 -10 0 12 #fcfcfc #000000 #000000 0 1;
#X obj 540 144 tgl 14 0 empty empty empty 0 -10 0 12 #fcfcfc #000000 #000000 0 1;
#X obj 555 144 tgl 14 0 empty empty empty 0 -10 0 12 #fcfcfc #000000 #000000 0 1;
#X obj 570 144 tgl 14 0 empty empty empty 0 -10 0 12 #fcfcfc #000000 #000000 0 1;
#X text 311 122 Track 1;
#X obj 108 206 tgl 14 0 empty empty empty 0 -10 0 12 #fcfcfc #000000 #000000 0 1;
#X obj 122 206 tgl 14 0 empty empty empty 0 -10 0 12 #fcfcfc #000000 #000000 0 1;
#X obj 137 206 tgl 14 0 empty empty empty 0 -10 0 12 #fcfcfc #000000 #000000 0 1;
#X obj 152 206 tgl 14 0 empty empty empty 0 -10 0 12 #fcfcfc #000000 #000000 0 1;
#X obj 167 206 tgl 14 0 empty empty empty 0 -10 0 12 #fcfcfc #000000 #000000 0 1;
#X obj 182 206 tgl 14 0 empty empty empty 0 -10 0 12 #fcfcfc #000000 #000000 0 1;
#X obj 197 206 tgl 14 0 empty empty empty 0 -10 0 12 #fcfcfc #000000 #000000 0 1;
#X obj 211 206 tgl 14 0 empty empty empty 0 -10 0 12 #fcfcfc #000000 #000000 0 1;
#X obj 226 206 tgl 14 0 empty empty empty 0 -10 0 12 #fcfcfc #000000 #000000 0 1;
#X obj 241 206 tgl 14 0 empty empty empty 0 -10 0 12 #fcfcfc #000000 #000000 0 1;
#X obj 256 206 tgl 14 0 empty empty empty 0 -10 0 12 #fcfcfc #000000 #000000 0 1;
#X obj 271 206 tgl 14 0 empty empty empty 0 -10 0 12 #fcfcfc #000000 #000000 0 1;
#X obj 286 206 tgl 14 0 empty empty empty 0 -10 0 12 #fcfcfc #000000 #000000 0 1;
#X obj 300 206 tgl 14 0 empty empty empty 0 -10 0 12 #fcfcfc #000000 #000000 0 1;
#X obj 315 206 tgl 14 0 empty empty empty 0 -10 0 12 #fcfcfc #000000 #000000 0 1;
#X obj 330 206 tgl 14 0 empty empty empty 0 -10 0 12 #fcfcfc #000000 #000000 0 1;
#X obj 345 206 tgl 14 0 empty empty empty 0 -10 0 12 #fcfcfc #000000 #000000 0 1;
#X obj 360 206 tgl 14 0 empty empty empty 0 -10 0 12 #fcfcfc #000000 #000000 0 1;
#X obj 375 206 tgl 14 0 empty empty empty 0 -10 0 12 #fcfcfc #000000 #000000 0 1;
#X obj 389 206 tgl 14 0 empty empty empty 0 -10 0 12 #fcfcfc #000000 #000000 0 1;
#X obj 404 206 tgl 14 0 empty empty empty 0 -10 0 12 #fcfcfc #000000 #000000 0 1;
#X obj 419 206 tgl 14 0 empty empty empty 0 -10 0 12 #fcfcfc #000000 #000000 0 1;
#X obj 434 206 tgl 14 0 empty empty empty 0 -10 0 12 #fcfcfc #000000 #000000 0 1;
#X obj 449 206 tgl 14 0 empty empty empty 0 -10 0 12 #fcfcfc #000000 #000000 0 1;
#X obj 464 206 tgl 14 0 empty empty empty 0 -10 0 12 #fcfcfc #000000 #000000 0 1;
#X obj 479 206 tgl 14 0 empty empty empty 0 -10 0 12 #fcfcfc #000000 #000000 0 1;
#X obj 494 206 tgl 14 0 empty empty empty 0 -10 0 12 #fcfcfc #000000 #000000 0 1;
#X obj 509 206 tgl 14 0 empty empty empty 0 -10 0 12 #fcfcfc #000000 #000000 0 1;
#X obj 524 206 tgl 14 0 empty empty empty 0 -10 0 12 #fcfcfc #000000 #000000 0 1;
#X obj 539 206 tgl 14 0 empty empty empty 0 -10 0 12 #fcfcfc #000000 #000000 0 1;
#X obj 554 206 tgl 14 0 empty empty empty 0 -10 0 12 #fcfcfc #000000 #000000 0 1;
#X obj 569 206 tgl 14 0 empty empty empty 0 -10 0 12 #fcfcfc #000000 #000000 0 1;
#X text 310 184 Track 2;
#X text 108 161 1;
#X text 210 160 8;
#X text 325 159 16;
#X text 444 159 24;
#X text 566 158 32;
#X text 107 226 1;
#X text 209 225 8;
#X text 324 224 16;
#X text 443 224 24;
#X text 565 223 32;
#X connect 0 0 2 1;
#X connect 1 0 2 0;
#X connect 2 0 3 0;
#X connect 3 0 160 0;
#X connect 4 0 1 0;
#X connect 5 0 7 1;
#X connect 6 0 7 0;
#X connect 7 0 8 0;
#X connect 8 0 160 0;
#X connect 9 0 11 1;
#X connect 10 0 11 0;
#X connect 11 0 12 0;
#X connect 12 0 160 0;
#X connect 13 0 15 1;
#X connect 14 0 15 0;
#X connect 15 0 16 0;
#X connect 16 0 160 0;
#X connect 17 0 19 1;
#X connect 18 0 19 0;
#X connect 19 0 20 0;
#X connect 20 0 160 0;
#X connect 21 0 23 1;
#X connect 22 0 23 0;
#X connect 23 0 24 0;
#X connect 24 0 160 0;
#X connect 25 0 27 1;
#X connect 26 0 27 0;
#X connect 27 0 28 0;
#X connect 28 0 160 0;
#X connect 29 0 31 1;
#X connect 30 0 31 0;
#X connect 31 0 32 0;
#X connect 32 0 160 0;
#X connect 33 0 6 0;
#X connect 34 0 10 0;
#X connect 35 0 14 0;
#X connect 36 0 18 0;
#X connect 37 0 22 0;
#X connect 38 0 26 0;
#X connect 39 0 30 0;
#X connect 40 0 42 1;
#X connect 41 0 42 0;
#X connect 42 0 43 0;
#X connect 43 0 160 0;
#X connect 44 0 46 1;
#X connect 45 0 46 0;
#X connect 46 0 47 0;
#X connect 47 0 160 0;
#X connect 48 0 50 1;
#X connect 49 0 50 0;
#X connect 50 0 51 0;
#X connect 51 0 160 0;
#X connect 52 0 54 1;
#X connect 53 0 54 0;
#X connect 54 0 55 0;
#X connect 55 0 160 0;
#X connect 56 0 41 0;
#X connect 57 0 45 0;
#X connect 58 0 49 0;
#X connect 59 0 53 0;
#X connect 60 0 62 1;
#X connect 61 0 62 0;
#X connect 62 0 63 0;
#X connect 63 0 160 0;
#X connect 64 0 66 1;
#X connect 65 0 66 0;
#X connect 66 0 67 0;
#X connect 67 0 160 0;
#X connect 68 0 70 1;
#X connect 69 0 70 0;
#X connect 70 0 71 0;
#X connect 71 0 160 0;
#X connect 72 0 74 1;
#X connect 73 0 74 0;
#X connect 74 0 75 0;
#X connect 75 0 160 0;
#X connect 76 0 61 0;
#X connect 77 0 65 0;
#X connect 78 0 69 0;
#X connect 79 0 73 0;
#X connect 80 0 82 1;
#X connect 81 0 82 0;
#X connect 82 0 83 0;
#X connect 83 0 160 0;
#X connect 84 0 86 1;
#X connect 85 0 86 0;
#X connect 86 0 87 0;
#X connect 87 0 160 0;
#X connect 88 0 90 1;
#X connect 89 0 90 0;
#X connect 90 0 91 0;
#X connect 91 0 160 0;
#X connect 92 0 94 1;
#X connect 93 0 94 0;
#X connect 94 0 95 0;
#X connect 95 0 160 0;
#X connect 96 0 81 0;
#X connect 97 0 85 0;
#X connect 98 0 89 0;
#X connect 99 0 93 0;
#X connect 100 0 102 1;
#X connect 101 0 102 0;
#X connect 102 0 103 0;
#X connect 103 0 160 0;
#X connect 104 0 106 1;
#X connect 105 0 106 0;
#X connect 106 0 107 0;
#X connect 107 0 160 0;
#X connect 108 0 110 1;
#X connect 109 0 110 0;
#X connect 110 0 111 0;
#X connect 111 0 160 0;
#X connect 112 0 114 1;
#X connect 113 0 114 0;
#X connect 114 0 115 0;
#X connect 115 0 160 0;
#X connect 116 0 101 0;
#X connect 117 0 105 0;
#X connect 118 0 109 0;
#X connect 119 0 113 0;
#X connect 120 0 122 1;
#X connect 121 0 122 0;
#X connect 122 0 123 0;
#X connect 123 0 160 0;
#X connect 124 0 126 1;
#X connect 125 0 126 0;
#X connect 126 0 127 0;
#X connect 127 0 160 0;
#X connect 128 0 130 1;
#X connect 129 0 130 0;
#X connect 130 0 131 0;
#X connect 131 0 160 0;
#X connect 132 0 134 1;
#X connect 133 0 134 0;
#X connect 134 0 135 0;
#X connect 135 0 160 0;
#X connect 136 0 121 0;
#X connect 137 0 125 0;
#X connect 138 0 129 0;
#X connect 139 0 133 0;
#X connect 140 0 142 1;
#X connect 141 0 142 0;
#X connect 142 0 143 0;
#X connect 143 0 160 0;
#X connect 144 0 146 1;
#X connect 145 0 146 0;
#X connect 146 0 147 0;
#X connect 147 0 160 0;
#X connect 148 0 150 1;
#X connect 149 0 150 0;
#X connect 150 0 151 0;
#X connect 151 0 160 0;
#X connect 152 0 154 1;
#X connect 153 0 154 0;
#X connect 154 0 155 0;
#X connect 155 0 160 0;
#X connect 156 0 141 0;
#X connect 157 0 145 0;
#X connect 158 0 149 0;
#X connect 159 0 153 0;
#X connect 161 0 163 1;
#X connect 162 0 163 0;
#X connect 163 0 164 0;
#X connect 164 0 321 0;
#X connect 165 0 162 0;
#X connect 166 0 168 1;
#X connect 167 0 168 0;
#X connect 168 0 169 0;
#X connect 169 0 321 0;
#X connect 170 0 172 1;
#X connect 171 0 172 0;
#X connect 172 0 173 0;
#X connect 173 0 321 0;
#X connect 174 0 176 1;
#X connect 175 0 176 0;
#X connect 176 0 177 0;
#X connect 177 0 321 0;
#X connect 178 0 180 1;
#X connect 179 0 180 0;
#X connect 180 0 181 0;
#X connect 181 0 321 0;
#X connect 182 0 184 1;
#X connect 183 0 184 0;
#X connect 184 0 185 0;
#X connect 185 0 321 0;
#X connect 186 0 188 1;
#X connect 187 0 188 0;
#X connect 188 0 189 0;
#X connect 189 0 321 0;
#X connect 190 0 192 1;
#X connect 191 0 192 0;
#X connect 192 0 193 0;
#X connect 193 0 321 0;
#X connect 194 0 167 0;
#X connect 195 0 171 0;
#X connect 196 0 175 0;
#X connect 197 0 179 0;
#X connect 198 0 183 0;
#X connect 199 0 187 0;
#X connect 200 0 191 0;
#X connect 201 0 203 1;
#X connect 202 0 203 0;
#X connect 203 0 204 0;
#X connect 204 0 321 0;
#X connect 205 0 207 1;
#X connect 206 0 207 0;
#X connect 207 0 208 0;
#X connect 208 0 321 0;
#X connect 209 0 211 1;
#X connect 210 0 211 0;
#X connect 211 0 212 0;
#X connect 212 0 321 0;
#X connect 213 0 215 1;
#X connect 214 0 215 0;
#X connect 215 0 216 0;
#X connect 216 0 321 0;
#X connect 217 0 202 0;
#X connect 218 0 206 0;
#X connect 219 0 210 0;
#X connect 220 0 214 0;
#X connect 221 0 223 1;
#X connect 222 0 223 0;
#X connect 223 0 224 0;
#X connect 224 0 321 0;
#X connect 225 0 227 1;
#X connect 226 0 227 0;
#X connect 227 0 228 0;
#X connect 228 0 321 0;
#X connect 229 0 231 1;
#X connect 230 0 231 0;
#X connect 231 0 232 0;
#X connect 232 0 321 0;
#X connect 233 0 235 1;
#X connect 234 0 235 0;
#X connect 235 0 236 0;
#X connect 236 0 321 0;
#X connect 237 0 222 0;
#X connect 238 0 226 0;
#X connect 239 0 230 0;
#X connect 240 0 234 0;
#X connect 241 0 243 1;
#X connect 242 0 243 0;
#X connect 243 0 244 0;
#X connect 244 0 321 0;
#X connect 245 0 247 1;
#X connect 246 0 247 0;
#X connect 247 0 248 0;
#X connect 248 0 321 0;
#X connect 249 0 251 1;
#X connect 250 0 251 0;
#X connect 251 0 252 0;
#X connect 252 0 321 0;
#X connect 253 0 255 1;
#X connect 254 0 255 0;
#X connect 255 0 256 0;
#X connect 256 0 321 0;
#X connect 257 0 242 0;
#X connect 258 0 246 0;
#X connect 259 0 250 0;
#X connect 260 0 254 0;
#X connect 261 0 263 1;
#X connect 262 0 263 0;
#X connect 263 0 264 0;
#X connect 264 0 321 0;
#X connect 265 0 267 1;
#X connect 266 0 267 0;
#X connect 267 0 268 0;
#X connect 268 0 321 0;
#X connect 269 0 271 1;
#X connect 270 0 271 0;
#X connect 271 0 272 0;
#X connect 272 0 321 0;
#X connect 273 0 275 1;
#X connect 274 0 275 0;
#X connect 275 0 276 0;
#X connect 276 0 321 0;
#X connect 277 0 262 0;
#X connect 278 0 266 0;
#X connect 279 0 270 0;
#X connect 280 0 274 0;
#X connect 281 0 283 1;
#X connect 282 0 283 0;
#X connect 283 0 284 0;
#X connect 284 0 321 0;
#X connect 285 0 287 1;
#X connect 286 0 287 0;
#X connect 287 0 288 0;
#X connect 288 0 321 0;
#X connect 289 0 291 1;
#X connect 290 0 291 0;
#X connect 291 0 292 0;
#X connect 292 0 321 0;
#X connect 293 0 295 1;
#X connect 294 0 295 0;
#X connect 295 0 296 0;
#X connect 296 0 321 0;
#X connect 297 0 282 0;
#X connect 298 0 286 0;
#X connect 299 0 290 0;
#X connect 300 0 294 0;
#X connect 301 0 303 1;
#X connect 302 0 303 0;
#X connect 303 0 304 0;
#X connect 304 0 321 0;
#X connect 305 0 307 1;
#X connect 306 0 307 0;
#X connect 307 0 308 0;
#X connect 308 0 321 0;
#X connect 309 0 311 1;
#X connect 310 0 311 0;
#X connect 311 0 312 0;
#X connect 312 0 321 0;
#X connect 313 0 315 1;
#X connect 314 0 315 0;
#X connect 315 0 316 0;
#X connect 316 0 321 0;
#X connect 317 0 302 0;
#X connect 318 0 306 0;
#X connect 319 0 310 0;
#X connect 320 0 314 0;
#X connect 322 0 0 0;
#X connect 323 0 5 0;
#X connect 324 0 9 0;
#X connect 325 0 13 0;
#X connect 326 0 17 0;
#X connect 327 0 21 0;
#X connect 328 0 25 0;
#X connect 329 0 29 0;
#X connect 330 0 40 0;
#X connect 331 0 44 0;
#X connect 332 0 48 0;
#X connect 333 0 52 0;
#X connect 334 0 60 0;
#X connect 335 0 64 0;
#X connect 336 0 68 0;
#X connect 337 0 72 0;
#X connect 338 0 80 0;
#X connect 339 0 84 0;
#X connect 340 0 88 0;
#X connect 341 0 92 0;
#X connect 342 0 100 0;
#X connect 343 0 104 0;
#X connect 344 0 108 0;
#X connect 345 0 112 0;
#X connect 346 0 120 0;
#X connect 347 0 124 0;
#X connect 348 0 128 0;
#X connect 349 0 132 0;
#X connect 350 0 140 0;
#X connect 351 0 144 0;
#X connect 352 0 148 0;
#X connect 353 0 152 0;
#X connect 355 0 161 0;
#X connect 356 0 166 0;
#X connect 357 0 170 0;
#X connect 358 0 174 0;
#X connect 359 0 178 0;
#X connect 360 0 182 0;
#X connect 361 0 186 0;
#X connect 362 0 190 0;
#X connect 363 0 201 0;
#X connect 364 0 205 0;
#X connect 365 0 209 0;
#X connect 366 0 213 0;
#X connect 367 0 221 0;
#X connect 368 0 225 0;
#X connect 369 0 229 0;
#X connect 370 0 233 0;
#X connect 371 0 241 0;
#X connect 372 0 245 0;
#X connect 373 0 249 0;
#X connect 374 0 253 0;
#X connect 375 0 261 0;
#X connect 376 0 265 0;
#X connect 377 0 269 0;
#X connect 378 0 273 0;
#X connect 379 0 281 0;
#X connect 380 0 285 0;
#X connect 381 0 289 0;
#X connect 382 0 293 0;
#X connect 383 0 301 0;
#X connect 384 0 305 0;
#X connect 385 0 309 0;
#X connect 386 0 313 0;
#X coords 0 -1 1 1 500 150 1 100 100;
#X restore 107 345 pd step_seq_toggles_matrix;
#N canvas 81 78 1179 599 step_seq_events_trigger 0;
#X obj 779 366 metro;
#X floatatom 811 288 5 0 0 0 - - - 0;
#X floatatom 811 338 5 0 0 0 - - - 0;
#X obj 811 314 expr 60000/$f1;
#X obj 417 272 tgl 19 0 empty empty Start/pause -30 -10 0 12 #fcfcfc #000000 #000000 0 1;
#X obj 779 396 i;
#X obj 820 396 + 1;
#X floatatom 779 426 5 0 0 0 - - - 0;
#X obj 311 271 bng 19 250 50 0 empty empty empty 0 -10 0 12 #fcfcfc #000000 #000000;
#X text 269 252 Reset and stop;
#X obj 213 275 bng 19 250 50 0 empty empty empty 0 -10 0 12 #fcfcfc #000000 #000000;
#X text 201 251 Restart;
#X obj 635 365 t 0 0;
#X obj 537 368 t 0 start;
#X obj 779 456 mod 16;
#X obj 110 147 hradio 14 1 1 32 empty empty Loop\ length\ in\ steps 0 -10 0 12 #fcfcfc #000000 #000000 15;
#X obj 857 482 + 1;
#X floatatom 779 481 5 0 0 0 - - - 0;
#X text 210 164 8;
#X text 316 165 16;
#X text 428 163 24;
#X text 540 163 32;
#X text 110 165 1;
#X obj 110 184 bng 14 250 50 0 empty empty empty 0 -10 0 12 #fcfcfc #000000 #000000;
#X obj 733 540 bng 19 250 50 0 empty empty empty 0 -10 0 12 #fcfcfc #000000 #000000;
#X obj 687 569 s b_click;
#X obj 125 184 bng 14 250 50 0 empty empty empty 0 -10 0 12 #fcfcfc #000000 #000000;
#X obj 139 184 bng 14 250 50 0 empty empty empty 0 -10 0 12 #fcfcfc #000000 #000000;
#X obj 154 184 bng 14 250 50 0 empty empty empty 0 -10 0 12 #fcfcfc #000000 #000000;
#X obj 166 184 bng 14 250 50 0 empty empty empty 0 -10 0 12 #fcfcfc #000000 #000000;
#X obj 181 184 bng 14 250 50 0 empty empty empty 0 -10 0 12 #fcfcfc #000000 #000000;
#X obj 194 184 bng 14 250 50 0 empty empty empty 0 -10 0 12 #fcfcfc #000000 #000000;
#X obj 209 184 bng 14 250 50 0 empty empty empty 0 -10 0 12 #fcfcfc #000000 #000000;
#X obj 224 184 bng 14 250 50 0 empty empty empty 0 -10 0 12 #fcfcfc #000000 #000000;
#X obj 238 184 bng 14 250 50 0 empty empty empty 0 -10 0 12 #fcfcfc #000000 #000000;
#X obj 251 184 bng 14 250 50 0 empty empty empty 0 -10 0 12 #fcfcfc #000000 #000000;
#X obj 265 184 bng 14 250 50 0 empty empty empty 0 -10 0 12 #fcfcfc #000000 #000000;
#X obj 279 184 bng 14 250 50 0 empty empty empty 0 -10 0 12 #fcfcfc #000000 #000000;
#X obj 293 184 bng 14 250 50 0 empty empty empty 0 -10 0 12 #fcfcfc #000000 #000000;
#X obj 308 184 bng 14 250 50 0 empty empty empty 0 -10 0 12 #fcfcfc #000000 #000000;
#X obj 322 184 bng 14 250 50 0 empty empty empty 0 -10 0 12 #fcfcfc #000000 #000000;
#X obj 336 184 bng 14 250 50 0 empty empty empty 0 -10 0 12 #fcfcfc #000000 #000000;
#X obj 351 184 bng 14 250 50 0 empty empty empty 0 -10 0 12 #fcfcfc #000000 #000000;
#X obj 362 184 bng 14 250 50 0 empty empty empty 0 -10 0 12 #fcfcfc #000000 #000000;
#X obj 376 184 bng 14 250 50 0 empty empty empty 0 -10 0 12 #fcfcfc #000000 #000000;
#X obj 390 184 bng 14 250 50 0 empty empty empty 0 -10 0 12 #fcfcfc #000000 #000000;
#X obj 403 184 bng 14 250 50 0 empty empty empty 0 -10 0 12 #fcfcfc #000000 #000000;
#X obj 418 184 bng 14 250 50 0 empty empty empty 0 -10 0 12 #fcfcfc #000000 #000000;
#X obj 433 184 bng 14 250 50 0 empty empty empty 0 -10 0 12 #fcfcfc #000000 #000000;
#X obj 446 184 bng 14 250 50 0 empty empty empty 0 -10 0 12 #fcfcfc #000000 #000000;
#X obj 460 184 bng 14 250 50 0 empty empty empty 0 -10 0 12 #fcfcfc #000000 #000000;
#X obj 474 184 bng 14 250 50 0 empty empty empty 0 -10 0 12 #fcfcfc #000000 #000000;
#X obj 488 184 bng 14 250 50 0 empty empty empty 0 -10 0 12 #fcfcfc #000000 #000000;
#X obj 502 184 bng 14 250 50 0 empty empty empty 0 -10 0 12 #fcfcfc #000000 #000000;
#X obj 517 184 bng 14 250 50 0 empty empty empty 0 -10 0 12 #fcfcfc #000000 #000000;
#X obj 530 184 bng 14 250 50 0 empty empty empty 0 -10 0 12 #fcfcfc #000000 #000000;
#X obj 545 184 bng 14 250 50 0 empty empty empty 0 -10 0 12 #fcfcfc #000000 #000000;
#X obj 779 508 sel 0 1 2 3 4 5 6 7 8 9 10 11 12 13 14 15 16 17 18 19 20 21 22 23 24 25 26 27 28 29 30 31, f 93;
#X obj 859 260 * 1;
#X obj 109 224 hradio 19 1 1 4 empty empty Step\ musical\ length\ (1/4\ -\ 1/8\ -\ 1/16\ -\ 1/32) 0 -10 0 12 #fcfcfc #000000 #000000 2;
#X obj 1031 165 sel 0;
#X msg 1031 192 1;
#X floatatom 812 262 5 0 0 0 - - - 0;
#X obj 1077 164 sel 1;
#X msg 1077 191 2;
#X obj 1123 164 sel 2;
#X obj 1169 163 sel 3;
#X msg 1123 191 4;
#X msg 1169 190 8;
#X obj 1092 227 t b i;
#X obj 780 571 s b_step_1;
#X obj 804 598 s b_step_2;
#X obj 830 624 s b_step_3;
#X obj 854 651 s b_step_4;
#X obj 882 677 s b_step_5;
#X obj 906 704 s b_step_6;
#X obj 932 730 s b_step_7;
#X obj 956 757 s b_step_8;
#X obj 981 784 s b_step_9;
#X obj 1005 811 s b_step_10;
#X obj 1031 837 s b_step_11;
#X obj 1055 864 s b_step_12;
#X obj 1083 890 s b_step_13;
#X obj 1107 917 s b_step_14;
#X obj 1133 943 s b_step_15;
#X obj 1157 970 s b_step_16;
#X obj 1188 996 s b_step_17;
#X obj 1212 1023 s b_step_18;
#X obj 1238 1049 s b_step_19;
#X obj 1262 1076 s b_step_20;
#X obj 1290 1102 s b_step_21;
#X obj 1314 1129 s b_step_22;
#X obj 1340 1155 s b_step_23;
#X obj 1364 1182 s b_step_24;
#X obj 1389 1209 s b_step_25;
#X obj 1413 1236 s b_step_26;
#X obj 1439 1262 s b_step_27;
#X obj 1463 1289 s b_step_28;
#X obj 1491 1315 s b_step_29;
#X obj 1515 1342 s b_step_30;
#X obj 1541 1368 s b_step_31;
#X obj 1565 1395 s b_step_32;
#X obj 408 224 hsl 162 19 10 240 0 1 empty empty BPM 140 -10 0 12 #fcfcfc #000000 #000000 6500 1;
#X connect 0 0 5 0;
#X connect 0 0 24 0;
#X connect 1 0 3 0;
#X connect 2 0 0 1;
#X connect 3 0 2 0;
#X connect 4 0 0 0;
#X connect 5 0 6 0;
#X connect 5 0 7 0;
#X connect 6 0 5 1;
#X connect 7 0 14 0;
#X connect 8 0 12 0;
#X connect 10 0 13 0;
#X connect 12 0 5 1;
#X connect 12 1 4 0;
#X connect 13 0 5 1;
#X connect 14 0 17 0;
#X connect 15 0 16 0;
#X connect 16 0 14 1;
#X connect 17 0 57 0;
#X connect 23 0 70 0;
#X connect 24 0 25 0;
#X connect 26 0 71 0;
#X connect 27 0 72 0;
#X connect 28 0 73 0;
#X connect 29 0 74 0;
#X connect 30 0 75 0;
#X connect 31 0 76 0;
#X connect 32 0 77 0;
#X connect 33 0 78 0;
#X connect 34 0 79 0;
#X connect 35 0 80 0;
#X connect 36 0 81 0;
#X connect 37 0 82 0;
#X connect 38 0 83 0;
#X connect 39 0 84 0;
#X connect 40 0 85 0;
#X connect 41 0 86 0;
#X connect 42 0 87 0;
#X connect 43 0 88 0;
#X connect 44 0 89 0;
#X connect 45 0 90 0;
#X connect 46 0 91 0;
#X connect 47 0 92 0;
#X connect 48 0 93 0;
#X connect 49 0 94 0;
#X connect 50 0 95 0;
#X connect 51 0 96 0;
#X connect 52 0 97 0;
#X connect 53 0 98 0;
#X connect 54 0 99 0;
#X connect 55 0 100 0;
#X connect 56 0 101 0;
#X connect 57 0 23 0;
#X connect 57 1 26 0;
#X connect 57 2 27 0;
#X connect 57 3 28 0;
#X connect 57 4 29 0;
#X connect 57 5 30 0;
#X connect 57 6 31 0;
#X connect 57 7 32 0;
#X connect 57 8 33 0;
#X connect 57 9 34 0;
#X connect 57 10 35 0;
#X connect 57 11 36 0;
#X connect 57 12 37 0;
#X connect 57 13 38 0;
#X connect 57 14 39 0;
#X connect 57 15 40 0;
#X connect 57 16 41 0;
#X connect 57 17 42 0;
#X connect 57 18 43 0;
#X connect 57 19 44 0;
#X connect 57 20 45 0;
#X connect 57 21 46 0;
#X connect 57 22 47 0;
#X connect 57 23 48 0;
#X connect 57 24 49 0;
#X connect 57 25 50 0;
#X connect 57 26 51 0;
#X connect 57 27 52 0;
#X connect 57 28 53 0;
#X connect 57 29 54 0;
#X connect 57 30 55 0;
#X connect 57 31 56 0;
#X connect 58 0 1 0;
#X connect 59 0 60 0;
#X connect 59 0 63 0;
#X connect 59 0 65 0;
#X connect 59 0 66 0;
#X connect 60 0 61 0;
#X connect 61 0 69 0;
#X connect 62 0 58 0;
#X connect 63 0 64 0;
#X connect 64 0 69 0;
#X connect 65 0 67 0;
#X connect 66 0 68 0;
#X connect 67 0 69 0;
#X connect 68 0 69 0;
#X connect 69 0 62 0;
#X connect 69 1 58 1;
#X connect 102 0 62 0;
#X coords 0 -1 1 1 480 200 1 100 100;
#X restore 110 138 pd step_seq_events_trigger;
#X text 377 563 CHOOSE SOUND FILE FOR EACH TRACK;
#X coords 0 -1 1 1 520 550 1 100 100;
