#N canvas 0 29 1280 704 12;
#X obj 350 -76 tgl 19 0 empty empty empty 0 -10 0 12 #fcfcfc #000000 #000000 0 1;
#X obj 474 -19 t b t;
#X obj 25 63 *~;
#X obj 25 225 delwrite~ \$0-ksDelay 500;
#X obj 245 153 delread~ \$0-ksDelay 500;
#X obj 245 177 *~ 0.99;
#X obj 247 76 expr 1000 / $f1;
#X obj 122 -59 mtof;
#X floatatom 122 -34 5 0 0 0 - - - 0;
#X floatatom 246 97 5 0 0 0 - - - 0;
#X obj 245 201 lop~ 5000;
#X obj 143 76 del;
#X obj 246 243 *~;
#X obj 246 120 t f f;
#X floatatom 74 101 5 0 0 0 - - - 0;
#X msg 143 103 0;
#X obj 349 -16 sel 0;
#N canvas 47 74 1233 582 ADSR_env 0;
#X obj 394 54 inlet;
#X obj 552 61 inlet;
#X obj 955 65 inlet;
#X obj -38 49 inlet;
#X text 352 20 Attack time (float);
#X text 552 19 Decay time (float);
#X text 955 22 Release time (float);
#X obj 144 63 inlet;
#X obj 777 60 inlet;
#X text 144 20 Attack level (float);
#X text 733 23 Sustain level (float);
#X text -38 6 Trigger (toggle);
#X text 361 616 Envelope values;
#X obj -38 148 sel 0;
#X obj 382 586 outlet~;
#X msg -38 210 stop;
#X obj 221 347 f \$1;
#X obj 221 382 pack 0 \$2;
#X obj 477 127 del \$2;
#X text 481 101 DECAY;
#X obj 477 179 f \$4;
#X obj 118 266 moses;
#X obj 92 300 t b b;
#X obj 154 331 t b;
#X msg 138 388 0;
#X obj 802 396 pack 0 \$5;
#X text 6 150 If 1 Trigger attack;
#X text -191 149 If 0 Trigger release;
#X text -137 235 Stop decay at note off;
#X text 668 372 Trigger release at note off;
#X text -39 414 Mute previous notes at new note on;
#X text 189 325 Trigger attack at note on;
#X text 294 130 Trigger decay at note on;
#X obj 660 504 line;
#X text 435 522 line: -left \; value -right \; time, f 14;
#X obj 477 242 pack 0 \$3;
#X obj 605 292 bng 19 250 50 0 empty empty empty 0 -10 0 12 #fcfcfc #000000 #000000;
#X obj 276 537 line~;
#X text 708 518 TEST;
#X obj 713 586 outlet;
#X obj 276 567 *~;
#X connect 0 0 17 1;
#X connect 0 0 18 1;
#X connect 1 0 35 1;
#X connect 2 0 25 1;
#X connect 3 0 13 0;
#X connect 7 0 16 1;
#X connect 8 0 20 1;
#X connect 13 0 15 0;
#X connect 13 0 25 0;
#X connect 13 1 21 0;
#X connect 15 0 18 0;
#X connect 16 0 17 0;
#X connect 17 0 33 0;
#X connect 17 0 37 0;
#X connect 18 0 20 0;
#X connect 20 0 35 0;
#X connect 21 0 22 0;
#X connect 21 1 23 0;
#X connect 22 0 23 0;
#X connect 22 1 24 0;
#X connect 23 0 18 0;
#X connect 23 0 16 0;
#X connect 24 0 33 0;
#X connect 24 0 37 0;
#X connect 25 0 33 0;
#X connect 25 0 37 0;
#X connect 33 0 39 0;
#X connect 35 0 36 0;
#X connect 35 0 33 0;
#X connect 35 0 37 0;
#X connect 37 0 40 0;
#X connect 37 0 40 1;
#X connect 40 0 14 0;
#X restore 585 89 pd ADSR_env;
#X text 752 -96 Arguments of ADSR_env patch \; Trigger envelope \, attack level \, attack time \, decay time \, sustain level \, release time;
#X obj 350 -46 t t t;
#X obj 74 40 t b b;
#X msg 74 71 1;
#X obj 350 -107 t t f;
#X obj 534 -95 / 127;
#X floatatom 534 -70 5 0 0 0 - - - 0;
#X obj 610 -23 *;
#X text 773 -4 Attack time;
#X text 775 55 Release time;
#X text 774 27 Decay time;
#X obj 144 50 * 10;
#X text 771 82 Damp factor (Low pass cut. f.);
#X text 36 128 Continuous or 1 time complex noise;
#X text 289 98 Period in ms;
#X text 162 -33 frequency in hZ;
#X text 446 -124 Attack level set by the velocity;
#X text 772 -30 Sustain level (attack level multiplier);
#X obj 217 281 dac~;
#X obj 121 -99 inlet, f 6;
#X obj 349 -140 inlet, f 6;
#X text 122 -121 MIDI Note Number;
#X text 349 -162 MIDI Velocity;
#X obj 730 -134 inlet;
#X obj 828 -135 inlet;
#X obj 924 -135 inlet;
#X obj 1025 -135 inlet;
#X obj 1129 -139 inlet;
#X obj 24 -4 inlet~;
#X text -129 -34 Input audio signal to be filtered;
#X floatatom 730 -28 5 0 0 0 - - - 0;
#X floatatom 729 -1 5 0 0 0 - - - 0;
#X floatatom 729 27 5 0 0 0 - - - 0;
#X floatatom 728 56 5 0 0 0 - - - 0;
#X floatatom 727 84 5 0 0 0 - - - 0;
#X obj 266 281 outlet~;
#X connect 0 0 19 0;
#X connect 1 1 17 0;
#X connect 2 0 3 0;
#X connect 4 0 5 0;
#X connect 5 0 10 0;
#X connect 6 0 9 0;
#X connect 7 0 8 0;
#X connect 8 0 6 0;
#X connect 9 0 13 0;
#X connect 10 0 12 0;
#X connect 10 0 3 0;
#X connect 11 0 15 0;
#X connect 12 0 36 0;
#X connect 12 0 36 1;
#X connect 12 0 53 0;
#X connect 13 0 11 1;
#X connect 13 1 4 0;
#X connect 14 0 2 1;
#X connect 15 0 14 0;
#X connect 16 0 15 0;
#X connect 16 1 20 0;
#X connect 17 0 12 1;
#X connect 19 0 16 0;
#X connect 19 1 1 0;
#X connect 20 0 21 0;
#X connect 20 1 11 0;
#X connect 21 0 14 0;
#X connect 22 0 0 0;
#X connect 22 1 23 0;
#X connect 23 0 24 0;
#X connect 24 0 17 1;
#X connect 24 0 25 0;
#X connect 25 0 17 4;
#X connect 37 0 7 0;
#X connect 38 0 22 0;
#X connect 41 0 49 0;
#X connect 42 0 50 0;
#X connect 43 0 48 0;
#X connect 44 0 51 0;
#X connect 45 0 52 0;
#X connect 46 0 2 0;
#X connect 48 0 25 1;
#X connect 49 0 17 2;
#X connect 50 0 17 3;
#X connect 51 0 17 5;
#X connect 52 0 10 1;
