#N canvas 62 24 1218 709 12;
#N canvas 0 22 450 278 (subpatch) 0;
#X array outputWaveform 100 float 3;
#A 0 0 0 0 0 0 0 0 0 0 0 0 0 0 0 0 0 0 0 0 0 0 0 0 0 0 0 0 0 0 0 0 0 0 0 0 0 0 0 0 0 0 0 0 0 0 0 0 0 0 0 0 0 0 0 0 0 0 0 0 0 0 0 0 0 0 0 0 0 0 0 0 0 0 0 0 0 0 0 0 0 0 0 0 0 0 0 0 0 0 0 0 0 0 0 0 0 0 0 0 0;
#X coords 0 1 100 -1 200 140 1 0 0;
#X restore 648 40 graph;
#N canvas 90 100 1190 633 karplusStrong_controls 0;
#X obj 900 145 noise~;
#X obj 900 176 s~ KarpStrong_inputSound;
#X text 977 240 ADSR amp envelope;
#X obj 401 170 vsl 19 90 0.01 1 1 1 empty empty Sustain\ level -30 -9 0 12 #fcfcfc #000000 #000000 7357 0;
#X floatatom 1107 416 5 0 0 0 - - - 0;
#X text 1104 475 Sustain level (attack level multiplier), f 15;
#X obj 207 169 vsl 19 90 1 2000 0 1 empty empty Attack\ time -30 -9 0 12 #fcfcfc #000000 #000000 218 0;
#X floatatom 199 268 5 0 0 0 - - - 0;
#X text 814 479 Attack time (ms);
#X obj 306 169 vsl 19 90 1 2000 0 1 empty empty Decay\ time -30 -9 0 12 #fcfcfc #000000 #000000 441 0;
#X floatatom 300 266 5 0 0 0 - - - 0;
#X text 960 485 Decay time (ms);
#X obj 512 170 vsl 19 90 1 2000 0 1 empty empty Release\ time -30 -9 0 12 #fcfcfc #000000 #000000 886 0;
#X floatatom 504 268 5 0 0 0 - - - 0;
#X text 1237 476 Release time (ms);
#X obj 671 173 vsl 19 90 20 20000 1 1 empty empty KarpStr\ filter\ cutoff\ f -50 -9 0 12 #fcfcfc #000000 #000000 7114 0;
#X floatatom 665 269 5 0 0 0 - - - 0;
#X obj 1158 193 s karpStrong_Cutof_f;
#X obj 827 454 s ampEnv_att_time;
#X obj 964 452 s ampEnv_dec_time;
#X obj 1106 449 s ampEnv_sus_lev;
#X obj 1248 449 s ampEnv_rel_time;
#X msg 824 272 50;
#X msg 962 282 100;
#X msg 1106 278 0.45;
#X msg 1247 277 200;
#X obj 1318 193 loadbang;
#X msg 1184 48 5000;
#X text 1137 76 Karplus Strong filter cutoff f.;
#X connect 0 0 1 0;
#X connect 3 0 4 0;
#X connect 4 0 20 0;
#X connect 6 0 7 0;
#X connect 7 0 18 0;
#X connect 9 0 10 0;
#X connect 10 0 19 0;
#X connect 12 0 13 0;
#X connect 13 0 21 0;
#X connect 15 0 16 0;
#X connect 16 0 17 0;
#X connect 22 0 6 0;
#X connect 23 0 9 0;
#X connect 24 0 3 0;
#X connect 25 0 12 0;
#X connect 26 0 25 0;
#X connect 26 0 24 0;
#X connect 26 0 23 0;
#X connect 26 0 22 0;
#X connect 26 0 27 0;
#X connect 27 0 15 0;
#X coords 0 -1 1 1 630 160 1 160 130;
#X restore 9 19 pd karplusStrong_controls;
#N canvas 89 120 450 300 midi_notes_routing 0;
#X obj 102 -5 notein;
#X obj 104 77 pack f f f;
#X obj 105 140 s voice_1_values;
#X obj 126 166 s voice_2_values;
#X obj 137 193 s voice_3_values;
#X obj 155 220 s voice_4_values;
#X obj 104 105 route 1 2 3 4 5 6;
#X obj 103 29 poly 6 1;
#X obj 178 250 s voice_5_values;
#X obj 202 276 s voice_6_values;
#X text 186 64 MIDI notes routings;
#X connect 0 0 7 0;
#X connect 0 1 7 1;
#X connect 1 0 6 0;
#X connect 6 0 2 0;
#X connect 6 1 3 0;
#X connect 6 2 4 0;
#X connect 6 3 5 0;
#X connect 6 4 8 0;
#X connect 6 5 9 0;
#X connect 7 0 1 0;
#X connect 7 1 1 1;
#X connect 7 2 1 2;
#X restore 648 198 pd midi_notes_routing;
#N canvas 110 143 450 300 polyphony_voices_manager 0;
#X obj 96 -405 KarplusStrong_synth_voice;
#X obj 90 -494 r voice_1_values;
#X obj 90 -460 unpack f f;
#X obj -29 -434 r~ KarpStrong_inputSound;
#X obj 218 -554 r ampEnv_att_time;
#X obj 218 -527 r ampEnv_dec_time;
#X obj 225 -501 r ampEnv_sus_lev;
#X obj 218 -474 r ampEnv_rel_time;
#X obj 197 -446 r karpStrong_Cutof_f;
#X text 453 -582 VOICES;
#X obj 492 -406 KarplusStrong_synth_voice;
#X obj 486 -461 unpack f f;
#X obj 367 -435 r~ KarpStrong_inputSound;
#X obj 614 -555 r ampEnv_att_time;
#X obj 614 -528 r ampEnv_dec_time;
#X obj 621 -502 r ampEnv_sus_lev;
#X obj 614 -475 r ampEnv_rel_time;
#X obj 593 -447 r karpStrong_Cutof_f;
#X obj 486 -495 r voice_2_values;
#X obj 99 -177 KarplusStrong_synth_voice;
#X obj 93 -266 unpack f f;
#X obj -26 -240 r~ KarpStrong_inputSound;
#X obj 221 -360 r ampEnv_att_time;
#X obj 221 -333 r ampEnv_dec_time;
#X obj 228 -307 r ampEnv_sus_lev;
#X obj 221 -280 r ampEnv_rel_time;
#X obj 200 -252 r karpStrong_Cutof_f;
#X obj 497 -179 KarplusStrong_synth_voice;
#X obj 491 -268 unpack f f;
#X obj 372 -242 r~ KarpStrong_inputSound;
#X obj 619 -362 r ampEnv_att_time;
#X obj 619 -335 r ampEnv_dec_time;
#X obj 626 -309 r ampEnv_sus_lev;
#X obj 619 -282 r ampEnv_rel_time;
#X obj 598 -254 r karpStrong_Cutof_f;
#X obj 93 -299 r voice_3_values;
#X obj 491 -302 r voice_4_values;
#X obj 321 142 tabwrite~ outputWaveform;
#X obj 361 108 metro 40;
#X obj 361 70 tgl 19 0 empty empty empty 0 -10 0 12 #fcfcfc #000000 #000000 0 1;
#X obj 105 45 KarplusStrong_synth_voice;
#X obj 99 -44 unpack f f;
#X obj -20 -18 r~ KarpStrong_inputSound;
#X obj 227 -138 r ampEnv_att_time;
#X obj 227 -111 r ampEnv_dec_time;
#X obj 234 -85 r ampEnv_sus_lev;
#X obj 227 -58 r ampEnv_rel_time;
#X obj 206 -30 r karpStrong_Cutof_f;
#X obj 503 43 KarplusStrong_synth_voice;
#X obj 497 -46 unpack f f;
#X obj 378 -20 r~ KarpStrong_inputSound;
#X obj 625 -140 r ampEnv_att_time;
#X obj 625 -113 r ampEnv_dec_time;
#X obj 632 -87 r ampEnv_sus_lev;
#X obj 625 -60 r ampEnv_rel_time;
#X obj 604 -32 r karpStrong_Cutof_f;
#X obj 99 -77 r voice_5_values;
#X obj 497 -80 r voice_6_values;
#X obj 361 38 loadbang;
#X connect 0 0 37 0;
#X connect 1 0 2 0;
#X connect 2 0 0 1;
#X connect 2 1 0 2;
#X connect 3 0 0 0;
#X connect 4 0 0 3;
#X connect 5 0 0 4;
#X connect 6 0 0 5;
#X connect 7 0 0 6;
#X connect 8 0 0 7;
#X connect 10 0 37 0;
#X connect 11 0 10 1;
#X connect 11 1 10 2;
#X connect 12 0 10 0;
#X connect 13 0 10 3;
#X connect 14 0 10 4;
#X connect 15 0 10 5;
#X connect 16 0 10 6;
#X connect 17 0 10 7;
#X connect 18 0 11 0;
#X connect 19 0 37 0;
#X connect 20 0 19 1;
#X connect 20 1 19 2;
#X connect 21 0 19 0;
#X connect 22 0 19 3;
#X connect 23 0 19 4;
#X connect 24 0 19 5;
#X connect 25 0 19 6;
#X connect 26 0 19 7;
#X connect 27 0 37 0;
#X connect 28 0 27 1;
#X connect 28 1 27 2;
#X connect 29 0 27 0;
#X connect 30 0 27 3;
#X connect 31 0 27 4;
#X connect 32 0 27 5;
#X connect 33 0 27 6;
#X connect 34 0 27 7;
#X connect 35 0 20 0;
#X connect 36 0 28 0;
#X connect 38 0 37 0;
#X connect 39 0 38 0;
#X connect 40 0 37 0;
#X connect 41 0 40 1;
#X connect 41 1 40 2;
#X connect 42 0 40 0;
#X connect 43 0 40 3;
#X connect 44 0 40 4;
#X connect 45 0 40 5;
#X connect 46 0 40 6;
#X connect 47 0 40 7;
#X connect 48 0 37 0;
#X connect 49 0 48 1;
#X connect 49 1 48 2;
#X connect 50 0 48 0;
#X connect 51 0 48 3;
#X connect 52 0 48 4;
#X connect 53 0 48 5;
#X connect 54 0 48 6;
#X connect 55 0 48 7;
#X connect 56 0 41 0;
#X connect 57 0 49 0;
#X connect 58 0 39 0;
#X restore 648 224 pd polyphony_voices_manager;
#X obj 12 194 2tracks_32steps_sequencer;
#X text 543 278 The step musical length specifies the musical length of each step. 1/4 means it is equal to the pulse/BPM. 1/8 it means it lasts 1 eigth \, so it is twice as fast than the pulse/BPM. So on and so forth. This aims either to "augment" the temporal resolution of the step sequencer \, but also possibly to enlarge the potential of the loop length (for example \, we can have a 5/4 loop with 1/16 resolution \, a 7/4 loop with 1/16 resolution \, a 4/4 loop with 1/32 resolution \, ecc.);
